# Created by Kenney (www.kenney.nl)

mtllib MainTile.mtl

g mergedBlocks

v 6 0 2
v 6 0 -2
v -6 0 2
v -6 0 -2
v 6 0.9 -2
v 6 0.9 2
v -6 0.9 -2
v -6 0.9 2
v 6.2 1.4 -2
v 6.2 1 -2
v 6.2 1.4 2
v 6.2 1 2
v 6 1 -2
v 6 1.4 -2
v 6 1 2
v 6 1.4 2
v 6.25 0 2
v 6.25 0 -2
v 5.95 0 2
v 5.95 0 -2
v 6.25 0.8 -2
v 6.25 0.8 2
v 5.95 0.8 -2
v 5.95 0.8 2
v 6.2 3.3 2
v 6 3.3 2
v 6.225 3.6 2
v 5.975 3.6 2
v 6.225 4 2
v 5.975 4 2
v 6.2 3.3 -2
v 6.225 3.6 -2
v 6 3.3 -2
v 5.975 3.6 -2
v 5.975 4 -2
v 6.225 4 -2
v -6 1.4 -2
v -6 1 -2
v -6 1.4 2
v -6 1 2
v -6.2 1 -2
v -6.2 1.4 -2
v -6.2 1 2
v -6.2 1.4 2
v -5.95 0 2
v -5.95 0 -2
v -6.25 0 2
v -6.25 0 -2
v -5.95 0.8 -2
v -5.95 0.8 2
v -6.25 0.8 -2
v -6.25 0.8 2
v -6 3.3 2
v -6.2 3.3 2
v -5.975 3.6 2
v -6.225 3.6 2
v -5.975 4 2
v -6.225 4 2
v -6 3.3 -2
v -5.975 3.6 -2
v -6.2 3.3 -2
v -6.225 3.6 -2
v -6.225 4 -2
v -5.975 4 -2

vn 0 -1 0
vn 1 0 0
vn -1 0 0
vn 0 0 -1
vn 0 0 1
vn -0.9701425 0.2425356 0
vn 0.9701425 0.2425356 0
vn 0.9965458 -0.08304548 0
vn -0.9965458 -0.08304548 0
vn 0 1 0

vt -6 -2
vt -6 2
vt 6 -2
vt 6 2
vt 2 0.9
vt 2 0
vt -2 0.9
vt -2 0
vt 6 0
vt -6 0
vt 6 0.9
vt -6 0.9
vt 2 1.4
vt 2 1
vt -2 1.4
vt -2 1
vt -6.25 -2
vt -6.25 2
vt -5.95 -2
vt -5.95 2
vt 2 0.8
vt -2 0.8
vt -5.95 0
vt -6.25 0
vt -5.95 0.8
vt -6.25 0.8
vt -6 1
vt -6.2 1
vt -6 1.4
vt -6.2 1.4
vt 6.25 0
vt 5.95 0
vt 6.25 0.8
vt 5.95 0.8
vt 6.2 1
vt 6 1
vt 6.2 1.4
vt 6 1.4
vt 6.2 3.3
vt 6 3.3
vt 6.225 3.6
vt 5.975 3.6
vt 6.225 4
vt 5.975 4
vt -6.2 3.3
vt -6.225 3.6
vt -6 3.3
vt -5.975 3.6
vt -5.975 4
vt -6.225 4
vt 2 3.6
vt 2 3.3
vt -2 3.6
vt -2 3.3
vt -6.225 -2
vt -6.225 2
vt -5.975 -2
vt -5.975 2
vt -2 4
vt 2 4
vt 5.95 -2
vt 5.95 2
vt 6.25 -2
vt 6.25 2
vt 5.975 -2
vt 5.975 2
vt 6.225 -2
vt 6.225 2

usemtl stoneDark(Clone)

f 3/3/1 2/2/1 1/1/1
f 2/2/1 3/3/1 4/4/1
f 6/7/2 2/6/2 5/5/2
f 2/6/2 6/7/2 1/8/2
f 3/6/3 7/7/3 4/8/3
f 7/7/3 3/6/3 8/5/3
f 7/11/4 2/10/4 4/9/4
f 2/10/4 7/11/4 5/12/4
f 6/11/5 3/10/5 1/9/5
f 3/10/5 6/11/5 8/12/5
f 31/52/2 11/15/2 9/13/2
f 11/15/2 31/52/2 25/54/2
f 16/13/3 33/54/3 14/15/3
f 33/54/3 16/13/3 26/52/3
f 25/39/5 16/38/5 11/37/5
f 16/38/5 25/39/5 26/40/5
f 33/47/4 9/30/4 14/29/4
f 9/30/4 33/47/4 31/45/4
f 59/52/2 39/15/2 37/13/2
f 39/15/2 59/52/2 53/54/2
f 44/13/3 61/54/3 42/15/3
f 61/54/3 44/13/3 54/52/3
f 53/47/5 44/30/5 39/29/5
f 44/30/5 53/47/5 54/45/5
f 61/39/4 37/38/4 42/37/4
f 37/38/4 61/39/4 59/40/4

usemtl stoneLight(Clone)

f 38/3/10 15/2/10 13/1/10
f 15/2/10 38/3/10 40/4/10
f 8/5/3 38/16/3 7/7/3
f 38/16/3 8/5/3 40/14/3
f 15/36/5 8/12/5 6/11/5
f 8/12/5 15/36/5 40/27/5
f 15/16/2 5/5/2 13/14/2
f 5/5/2 15/16/2 6/7/2
f 38/36/4 5/12/4 7/11/4
f 5/12/4 38/36/4 13/27/4
f 11/15/2 10/14/2 9/13/2
f 10/14/2 11/15/2 12/16/2
f 15/14/3 14/15/3 13/16/3
f 14/15/3 15/14/3 16/13/3
f 19/19/1 18/18/1 17/17/1
f 18/18/1 19/19/1 20/20/1
f 22/22/2 18/6/2 21/21/2
f 18/6/2 22/22/2 17/8/2
f 23/25/4 18/24/4 20/23/4
f 18/24/4 23/25/4 21/26/4
f 21/26/4 23/25/4 13/27/4
f 21/26/4 13/27/4 10/28/4
f 10/28/4 13/27/4 14/29/4
f 10/28/4 14/29/4 9/30/4
f 20/8/3 24/21/3 23/22/3
f 24/21/3 20/8/3 19/6/3
f 22/33/5 19/32/5 17/31/5
f 19/32/5 22/33/5 24/34/5
f 24/34/5 22/33/5 12/35/5
f 24/34/5 12/35/5 15/36/5
f 15/36/5 12/35/5 11/37/5
f 15/36/5 11/37/5 16/38/5
f 23/22/6 15/14/6 13/16/6
f 15/14/6 23/22/6 24/21/6
f 10/14/7 22/22/7 21/21/7
f 22/22/7 10/14/7 12/16/7
f 27/41/5 26/40/5 25/39/5
f 26/40/5 27/41/5 28/42/5
f 28/42/5 27/41/5 29/43/5
f 28/42/5 29/43/5 30/44/5
f 33/47/4 32/46/4 31/45/4
f 32/46/4 33/47/4 34/48/4
f 32/46/4 34/48/4 35/49/4
f 32/46/4 35/49/4 36/50/4
f 27/53/8 31/52/8 32/51/8
f 31/52/8 27/53/8 25/54/8
f 26/52/9 34/53/9 33/54/9
f 34/53/9 26/52/9 28/51/9
f 35/57/10 29/56/10 36/55/10
f 29/56/10 35/57/10 30/58/10
f 28/51/3 35/59/3 34/53/3
f 35/59/3 28/51/3 30/60/3
f 29/59/2 32/51/2 36/60/2
f 32/51/2 29/59/2 27/53/2
f 39/15/2 38/14/2 37/13/2
f 38/14/2 39/15/2 40/16/2
f 43/14/3 42/15/3 41/16/3
f 42/15/3 43/14/3 44/13/3
f 47/63/1 46/62/1 45/61/1
f 46/62/1 47/63/1 48/64/1
f 50/22/2 46/6/2 49/21/2
f 46/6/2 50/22/2 45/8/2
f 51/33/4 46/32/4 48/31/4
f 46/32/4 51/33/4 49/34/4
f 49/34/4 51/33/4 41/35/4
f 49/34/4 41/35/4 38/36/4
f 38/36/4 41/35/4 42/37/4
f 38/36/4 42/37/4 37/38/4
f 48/8/3 52/21/3 51/22/3
f 52/21/3 48/8/3 47/6/3
f 50/25/5 47/24/5 45/23/5
f 47/24/5 50/25/5 52/26/5
f 52/26/5 50/25/5 40/27/5
f 52/26/5 40/27/5 43/28/5
f 43/28/5 40/27/5 39/29/5
f 43/28/5 39/29/5 44/30/5
f 51/22/6 43/14/6 41/16/6
f 43/14/6 51/22/6 52/21/6
f 38/14/7 50/22/7 49/21/7
f 50/22/7 38/14/7 40/16/7
f 55/48/5 54/45/5 53/47/5
f 54/45/5 55/48/5 56/46/5
f 56/46/5 55/48/5 57/49/5
f 56/46/5 57/49/5 58/50/5
f 61/39/4 60/42/4 59/40/4
f 60/42/4 61/39/4 62/41/4
f 60/42/4 62/41/4 63/43/4
f 60/42/4 63/43/4 64/44/4
f 55/53/8 59/52/8 60/51/8
f 59/52/8 55/53/8 53/54/8
f 54/52/9 62/53/9 61/54/9
f 62/53/9 54/52/9 56/51/9
f 63/67/10 57/66/10 64/65/10
f 57/66/10 63/67/10 58/68/10
f 56/51/3 63/59/3 62/53/3
f 63/59/3 56/51/3 58/60/3
f 57/59/2 60/51/2 64/60/2
f 60/51/2 57/59/2 55/53/2

